<svg width="50" height="50" viewBox="0 0 50 50" fill="none" xmlns="http://www.w3.org/2000/svg">
<circle cx="25" cy="25" r="25" fill="#EDCD5C"/>
<ellipse cx="21.5" cy="24.9167" rx="21.5" ry="21.9167" fill="#DB7A7A"/>
<ellipse cx="17.4166" cy="25.1667" rx="7.58333" ry="11.5" fill="#EDCD5C"/>
<ellipse cx="18.25" cy="25.1667" rx="6.75" ry="11.5" fill="#FFE99D"/>
<ellipse cx="27.1667" cy="11.75" rx="0.666667" ry="0.75" fill="#A0D2A8"/>
<ellipse cx="20.1667" cy="41.5833" rx="0.666667" ry="0.75" fill="#FFECAB"/>
<ellipse cx="22.1667" cy="8.75" rx="0.666667" ry="0.75" fill="#FCBCBC"/>
<ellipse cx="31.0834" cy="19.1667" rx="2.08333" ry="0.5" transform="rotate(31.6113 31.0834 19.1667)" fill="#FFEDAB"/>
<ellipse cx="4.70293" cy="20.6845" rx="2.08333" ry="0.5" transform="rotate(76.0002 4.70293 20.6845)" fill="#884646"/>
<ellipse cx="13.5364" cy="10.3512" rx="2.08333" ry="0.5" transform="rotate(117.062 13.5364 10.3512)" fill="#FCBCBC"/>
<ellipse cx="31.8333" cy="31.3333" rx="2.83333" ry="0.666667" transform="rotate(-35.4454 31.8333 31.3333)" fill="#884646"/>
<ellipse cx="5.52812" cy="30.1862" rx="2.83333" ry="0.666667" transform="rotate(-114.882 5.52812 30.1862)" fill="#FFECAB"/>
<circle cx="37.9167" cy="23.75" r="0.416667" fill="#FCBCBC"/>
<circle cx="7.08341" cy="14.4167" r="0.416667" fill="#884646"/>
<ellipse cx="30.9167" cy="24.5834" rx="1.25" ry="0.416667" fill="#6ECDD3"/>
<ellipse cx="29.0833" cy="39.0834" rx="1.25" ry="0.416667" fill="#884646"/>
<ellipse cx="11.0833" cy="38.25" rx="1.25" ry="0.416667" fill="#884646"/>
</svg>
